<svg width="15.204" height="18.422" xml:space="preserve" style="clip-rule:evenodd;fill-rule:evenodd;stroke-miterlimit:1.5"><path d="M123.307 179.408c-2.445 1.946-2.357 3.765 0 5.469 2.357-1.704 2.446-3.523 0-5.469z" style="fill:#fff;fill-opacity:1;stroke:#fff;stroke-width:.80000001px;stroke-opacity:1;stroke-linecap:round;stroke-linejoin:round" transform="translate(-115.705 -169.657)"/><path d="M123.283 177.323c-.838 3.338.423 4.616 3.148 5.322.846-2.847.021-4.533-3.148-5.322z" style="fill:#fff;fill-opacity:1;stroke:#fff;stroke-width:.80000001px;stroke-opacity:1;stroke-linecap:round;stroke-linejoin:round" transform="translate(-115.705 -169.657)"/><path d="M123.331 177.323c.838 3.338-.423 4.616-3.148 5.322-.846-2.847-.021-4.533 3.148-5.322z" style="fill:#fff;fill-opacity:1;stroke:#fff;stroke-width:.80000001px;stroke-opacity:1;stroke-linecap:round;stroke-linejoin:round" transform="translate(-115.705 -169.657)"/><path d="M123.307 177.323c-2.445 1.867-2.357 3.612 0 5.247 2.357-1.635 2.446-3.38 0-5.247z" style="fill:#fff;fill-opacity:1;stroke:#fff;stroke-width:.80000001px;stroke-opacity:1;stroke-linejoin:round" transform="translate(-115.705 -169.657)"/><path d="M123.745 175.627c-.463 3.38.924 4.523 3.695 4.963.525-2.897-.475-4.486-3.695-4.963zM122.869 175.627c.464 3.38-.924 4.523-3.695 4.963-.525-2.897.475-4.486 3.695-4.963z" style="fill:#fff;fill-opacity:1;stroke:#fff;stroke-width:.80000001px;stroke-opacity:1;stroke-linecap:round;stroke-linejoin:round" transform="translate(-115.705 -169.657)"/><path d="M118.478 177.876c.055-3.079 2.301-4.857 4.829-4.874 2.528-.017 4.775 1.795 4.829 4.874-1.276.018-2.312-.146-3.094-.627-.187.847-.772 1.672-1.735 2.474-.963-.802-1.548-1.627-1.735-2.474-.782.481-1.818.645-3.094.627z" style="fill:#040404;fill-opacity:1;stroke:#fff;stroke-width:.8;stroke-opacity:1;stroke-miterlimit:1.5;stroke-dasharray:none;stroke-linejoin:round;stroke-linecap:round" transform="translate(-115.705 -169.657)"/><path d="M123.307 173.611v-1.323" style="fill:none;stroke:#fff;stroke-width:.80000001px;stroke-linecap:round;stroke-opacity:1" transform="translate(-115.705 -169.657)"/></svg>